<svg version="1" xmlns="http://www.w3.org/2000/svg" width="682.667" height="682.667" viewBox="0 0 512.000000 512.000000"><path d="M229.5 38.5C180 45 136.2 66.1 101.7 100.2c-19.8 19.6-31.9 36.2-43.7 60.3-12.4 25.3-18.5 46-21.7 73.5-1.5 12.5-.6 54 1.2 57 .1.3.6 2.7.9 5.5 1.4 10.2 7.2 30.7 12.5 43.7 19.9 49.5 57.5 90.6 105 114.7 19.6 9.9 43.5 18 61.1 20.6 2.4.4 4.7.8 5 1 2.9 1.8 47.6 2.7 59.5 1.2 5.1-.7 11.5-1.8 24.5-4.3 5.6-1.1 22.2-6.2 27.5-8.5 1.1-.4 4.9-2 8.5-3.5 38.1-15.6 74.7-45.7 97.2-80 7.6-11.6 7.2-10.9 13.2-22.5 12.8-24.6 19.8-47.7 23.3-76.9 1-8.1 1-40.5 0-48.4-.4-3.3-1.1-8.5-1.7-11.5-.5-3.1-1.1-6.7-1.4-8.1-.2-1.4-1.1-5.4-2.1-9-20-78.2-77.8-137.7-155-159.8-6.1-1.8-17-4.3-20-4.7-.5 0-3-.4-5.5-.9-2.5-.4-5.8-1-7.5-1.2-7.4-1.2-43.6-1.1-53 .1z"/></svg>